HIERARCHY
ROOT root
{
	OFFSET	0	13.1	24.9
	CHANNELS 6  Xposition Yposition Zposition Xrotation Yrotation Zrotation
	JOINT spine_1
	{
		OFFSET	0	9.99999	0
		CHANNELS 3  Xrotation Yrotation Zrotation
		JOINT spine_2
		{
			OFFSET	0	112	-10
			CHANNELS 3  Xrotation Yrotation Zrotation
			JOINT spine_3
			{
				OFFSET	0	206.5	19.3
				CHANNELS 3  Xrotation Yrotation Zrotation
				JOINT spine_4
				{
					OFFSET	0	110.4	14.6
					CHANNELS 3  Xrotation Yrotation Zrotation
					JOINT neck_1
					{
						OFFSET	0	71.8	-50.3
						CHANNELS 3  Xrotation Yrotation Zrotation
						JOINT neck_2
						{
							OFFSET	0	86.2	-25.8
							CHANNELS 3  Xrotation Yrotation Zrotation
							JOINT head_ee
							{
								OFFSET	0	179.8	-8.7
								CHANNELS 3  Xrotation Yrotation Zrotation
								End Site
								{
									OFFSET	1	0	0
								}
							}
						}
					}
					JOINT left_clavicle
					{
						OFFSET	-43.2	22.4	-70.8
						CHANNELS 3  Xrotation Yrotation Zrotation
						JOINT left_shoulder
						{
							OFFSET	-93.9	-5.79999	48.7
							CHANNELS 3  Xrotation Yrotation Zrotation
							JOINT left_elbow
							{
								OFFSET	-291.4	-30.8	15.2
								CHANNELS 3  Xrotation Yrotation Zrotation
								JOINT left_lowarm_twist
								{
									OFFSET	-110.7	-3.89999	13.6
									CHANNELS 3  Xrotation Yrotation Zrotation
									JOINT left_hand
									{
										OFFSET	-110.7	-3.89999	13.6
										CHANNELS 3  Xrotation Yrotation Zrotation
										JOINT left_ee
										{
											OFFSET	-80.8	-5.10001	12.1
											CHANNELS 3  Xrotation Yrotation Zrotation
											End Site
											{
												OFFSET	1	0	0
											}
										}
									}
								}
							}
						}
					}
					JOINT right_clavicle
					{
						OFFSET	43.2	22.4	-70.8
						CHANNELS 3  Xrotation Yrotation Zrotation
						JOINT right_shoulder
						{
							OFFSET	93.9	-5.79999	48.7
							CHANNELS 3  Xrotation Yrotation Zrotation
							JOINT right_elbow
							{
								OFFSET	291.4	-30.8	15.2
								CHANNELS 3  Xrotation Yrotation Zrotation
								JOINT right_lowarm_twist
								{
									OFFSET	110.7	-3.89999	13.6
									CHANNELS 3  Xrotation Yrotation Zrotation
									JOINT right_hand
									{
										OFFSET	110.7	-3.89999	13.6
										CHANNELS 3  Xrotation Yrotation Zrotation
										JOINT right_ee
										{
											OFFSET	80.8	-5.10001	12.1
											CHANNELS 3  Xrotation Yrotation Zrotation
											End Site
											{
												OFFSET	1	0	0
											}
										}
									}
								}
							}
						}
					}
				}
			}
		}
	}
	JOINT left_hip
	{
		OFFSET	-82.8	-127.5	0.300001
		CHANNELS 3  Xrotation Yrotation Zrotation
		JOINT left_knee
		{
			OFFSET	-28.2	-396.7	2.2
			CHANNELS 3  Xrotation Yrotation Zrotation
			JOINT left_ankle
			{
				OFFSET	-11.7	-411.3	35.4
				CHANNELS 3  Xrotation Yrotation Zrotation
				JOINT left_toes
				{
					OFFSET	0	-60	-88.6
					CHANNELS 3  Xrotation Yrotation Zrotation
					JOINT left_foot_ee
					{
						OFFSET	-22.5	-16.5	-42.2
						CHANNELS 3  Xrotation Yrotation Zrotation
						End Site
						{
							OFFSET	1	0	0
						}
					}
				}
			}
		}
	}
	JOINT right_hip
	{
		OFFSET	82.8	-127.5	0.300001
		CHANNELS 3  Xrotation Yrotation Zrotation
		JOINT right_knee
		{
			OFFSET	28.2	-396.7	2.2
			CHANNELS 3  Xrotation Yrotation Zrotation
			JOINT right_ankle
			{
				OFFSET	11.7	-411.3	35.4
				CHANNELS 3  Xrotation Yrotation Zrotation
				JOINT right_toes
				{
					OFFSET	0	-60	-88.6
					CHANNELS 3  Xrotation Yrotation Zrotation
					JOINT right_foot_ee
					{
						OFFSET	22.5	-16.5	-42.2
						CHANNELS 3  Xrotation Yrotation Zrotation
						End Site
						{
							OFFSET	1	0	0
						}
					}
				}
			}
		}
	}
}
MOTION
Frames: 13
Frame Time: 0.02
974.647231574 732.586 -1632.55155738 -8.68760776967 38.7560804351 -2.35386272531 5.90944 1.05153 4.02293 5.91809 0.793629 4.08156 5.96462 0.3518 4.14299 5.94207 1.00116 4.03574 -13.9717 18.3454 -5.6953 -15.2364 38.4068 0.994259 -0.0 0.0 -0.0 -11.5876 24.1524 -13.3781 -27.5847 -4.07951 69.5761 2.35045 -49.3351 1.0796 -7.49414 -0.323532 0.901086 0.727549 12.7852 9.88846 -0.0 0.0 -0.0 12.7969 15.7767 -26.0042 -13.2814 63.5264 -73.0951 0.449514 12.5538 -0.0494436 79.2357 3.75071 8.5661 -2.61719 -23.7491 5.53103 0.0 0.0 0.0 4.64478 57.364 -2.56024 -19.6207 0.299959 2.98132 27.9516 -11.9835 -3.86014 -10.0109 0.0 0.0 -0.0 0.0 -0.0 3.09693 42.8058 -1.90843 3.13106 0.141543 0.45952 35.816 -10.7581 4.49593 -12.417 0.0 0.0 0.0 0.0 0.0 
960.871823927 731.845 -1631.46893126 -8.63596642705 41.3531409277 -2.1991986197 5.95973 0.882495 3.88824 5.96791 0.633485 3.93641 6.00195 0.210315 3.98143 5.9808 0.835988 3.89848 -14.4828 18.8579 -3.89671 -15.9033 38.3201 3.10877 -0.0 0.0 -0.0 -11.1193 23.1232 -13.1564 -27.8908 -5.29609 69.8006 1.84108 -42.3612 0.713442 -7.35101 -0.316255 0.88429 1.03833 13.0863 11.9944 -0.0 0.0 -0.0 13.515 16.1857 -27.6641 -12.6923 63.5283 -72.7063 0.433166 12.1109 -0.0459518 80.1111 3.85135 8.61602 -1.98658 -21.0944 3.21309 0.0 0.0 0.0 6.74273 54.4014 -3.92811 -18.4187 0.311106 2.79723 26.5159 -12.8784 -3.71378 -9.24708 0.0 0.0 -0.0 0.0 -0.0 2.47256 42.9 -1.46101 1.82515 0.0794502 0.268787 34.6506 -10.442 4.37981 -14.8722 0.0 0.0 0.0 0.0 0.0 
935.193738733 730.524 -1615.00854671 -9.90143544241 46.2314776989 0.158898655901 6.22077 1.04081 3.35209 6.22664 0.825526 3.41144 6.26836 0.47374 3.4777 6.25292 1.01672 3.35947 -15.6231 18.2584 -4.33113 -17.1696 37.433 2.90227 -0.0 0.0 -0.0 -9.8837 21.8481 -11.8235 -27.3942 -5.47417 70.4809 1.07525 -28.0412 0.268508 -10.7481 -0.500224 1.27788 0.748993 17.2851 11.6606 -0.0 0.0 -0.0 13.7038 18.1421 -28.0141 -13.3904 63.6655 -69.1774 0.395256 11.0785 -0.038332 81.3777 3.9983 8.68551 -1.25651 -19.156 -0.210759 0.0 0.0 0.0 19.3181 44.1819 -9.26498 -14.4157 0.320352 2.18326 23.3173 -16.1428 -3.40163 -12.2685 0.0 0.0 -0.0 0.0 -0.0 0.990712 41.8542 -1.22302 1.6756 0.0726178 0.246858 41.7591 -6.95376 5.01032 -22.6255 0.0 0.0 0.0 0.0 0.0 
929.775702332 730.524 -1596.78346664 -10.355761207 48.5697241476 0.775970509167 6.22077 1.04081 3.35209 6.22664 0.825526 3.41144 6.26836 0.47374 3.4777 6.25292 1.01672 3.35947 -15.6231 18.2584 -4.33113 -17.1696 37.433 2.90227 -0.0 0.0 -0.0 -9.8837 21.8481 -11.8235 -27.3942 -5.47417 70.4809 1.07525 -28.0412 0.268508 -10.7481 -0.500224 1.27788 0.748993 17.2851 11.6606 -0.0 0.0 -0.0 13.7038 18.1421 -28.0141 -13.3904 63.6655 -69.1774 0.395256 11.0785 -0.038332 81.3777 3.9983 8.68551 -1.25651 -19.156 -0.210759 0.0 0.0 0.0 19.3181 44.1819 -9.26498 -14.4157 0.320352 2.18326 23.3173 -16.1428 -3.40163 -12.2685 0.0 0.0 -0.0 0.0 -0.0 0.990712 41.8542 -1.22302 1.6756 0.0726178 0.246858 41.7591 -6.95376 5.01032 -22.6255 0.0 0.0 0.0 0.0 0.0 
927.58819494 727.427 -1579.61050169 -13.0364124157 51.2460233257 4.2517618074 6.40478 1.01869 3.20017 6.41011 0.813105 3.25842 6.44928 0.487426 3.32271 6.43528 1.0058 3.20424 -15.9839 18.1219 -4.22088 -17.568 37.1072 3.08349 -0.0 0.0 -0.0 -9.41032 21.0055 -11.4343 -26.83 -5.70828 70.5423 0.875942 -23.4565 0.181853 -11.6452 -0.552685 1.37996 0.696738 18.9776 11.9329 -0.0 0.0 -0.0 13.8368 18.929 -28.2808 -13.1676 63.761 -66.5337 0.43504 12.1618 -0.0463458 82.0181 4.07317 8.71941 -0.611616 -16.5598 -2.99378 0.0 0.0 0.0 24.0132 40.8688 -11.205 -13.8482 0.318191 2.09621 25.0476 -16.2009 -3.61887 -13.1303 0.0 0.0 -0.0 0.0 -0.0 2.5186 39.597 -1.91138 5.7456 0.278872 0.836978 40.584 -7.98944 4.91509 -25.9342 0.0 0.0 0.0 0.0 0.0 
904.86423256 725.435 -1547.34786772 -18.514625568 55.7366130634 9.81327025292 6.8293 0.990538 2.83618 6.83341 0.808135 2.8934 6.86817 0.540084 2.95514 6.85738 0.99983 2.83292 -15.5107 18.3462 -2.34658 -16.9788 36.4686 4.71725 -0.0 0.0 -0.0 -9.14363 22.1224 -10.5861 -27.9802 -5.93287 70.6197 0.715616 -19.5192 0.12309 -12.2486 -0.588874 1.44817 0.749766 21.9521 13.2726 -0.0 0.0 -0.0 13.9039 19.1199 -28.4271 -14.8149 63.8651 -62.275 0.52775 14.6512 -0.0678465 81.8391 4.05221 8.71002 1.11836 -8.80641 -10.939 0.0 0.0 0.0 29.2237 36.7548 -12.4084 -13.5254 0.316577 2.04671 24.5217 -14.3307 -3.50768 -14.963 0.0 0.0 -0.0 0.0 -0.0 3.5283 33.26 -1.66274 7.81999 0.40003 1.13185 39.8463 -11.3765 4.87455 -32.5156 0.0 0.0 0.0 0.0 0.0 
889.449000257 730.541 -1526.05053754 -17.8431796172 58.3398042144 9.5897819516 6.59687 0.845459 2.7412 6.60081 0.669386 2.78939 6.62797 0.399322 2.84062 6.6177 0.842766 2.74203 -15.6278 17.7399 -1.68866 -16.9765 34.9384 5.08405 -0.0 0.0 -0.0 -9.66226 23.6439 -10.7462 -31.0049 -5.73027 70.7926 1.03492 -27.1422 0.249827 -10.0106 -0.458304 1.19336 1.00195 20.4913 14.3215 -0.0 0.0 -0.0 13.2603 13.6574 -27.1425 -14.7211 63.7975 -61.6403 0.668843 18.3314 -0.107919 81.1716 3.97429 8.67443 2.57064 0.595857 -17.2109 0.0 0.0 0.0 31.3489 34.7985 -13.3097 -13.399 0.315868 2.02732 18.3813 -12.9393 -2.69318 -17.2538 0.0 0.0 -0.0 0.0 -0.0 2.71593 32.0194 -1.42273 5.98798 0.292475 0.871652 40.8732 -9.01428 4.94545 -38.1783 0.0 0.0 0.0 0.0 0.0 
888.462253405 730.541 -1515.59771468 -18.4845623121 59.517726181 10.3385580001 6.59687 0.845459 2.7412 6.60081 0.669386 2.78939 6.62797 0.399322 2.84062 6.6177 0.842766 2.74203 -15.6278 17.7399 -1.68866 -16.9765 34.9384 5.08405 -0.0 0.0 -0.0 -9.66226 23.6439 -10.7462 -31.0049 -5.73027 70.7926 1.03492 -27.1422 0.249827 -10.0106 -0.458304 1.19336 1.00195 20.4913 14.3215 -0.0 0.0 -0.0 13.2603 13.6574 -27.1425 -14.7211 63.7975 -61.6403 0.668843 18.3314 -0.107919 81.1716 3.97429 8.67443 2.57064 0.595857 -17.2109 0.0 0.0 0.0 31.3489 34.7985 -13.3097 -13.399 0.315868 2.02732 18.3813 -12.9393 -2.69318 -17.2538 0.0 0.0 -0.0 0.0 -0.0 2.71593 32.0194 -1.42273 5.98798 0.292475 0.871652 40.8732 -9.01428 4.94545 -38.1783 0.0 0.0 0.0 0.0 0.0 
876.705636967 726.168 -1504.65992037 -19.1639185228 61.4206586888 11.548614154 6.54546 0.706879 2.64224 6.54919 0.537376 2.68182 6.56933 0.275262 2.72122 6.55969 0.701423 2.64369 -14.7881 17.3257 -0.867385 -15.9004 33.6336 5.35082 -0.0 0.0 -0.0 -10.2456 24.8647 -11.0751 -31.5569 -5.70126 71.2198 1.08306 -28.2134 0.272187 -9.04926 -0.405299 1.0824 1.26396 21.1745 16.152 -0.0 0.0 -0.0 13.272 13.2483 -27.1769 -15.0418 63.3501 -59.974 0.779324 21.1092 -0.14521 82.0418 4.07596 8.72065 3.49469 8.11277 -20.5796 0.0 0.0 0.0 32.2392 34.4319 -13.7855 -12.4768 0.309409 1.88597 15.5659 -9.77998 -2.26861 -17.5064 0.0 0.0 -0.0 0.0 -0.0 2.67345 28.9538 -1.71847 4.82284 0.228433 0.704465 41.7919 -5.99324 5.01052 -40.1182 0.0 0.0 0.0 0.0 0.0 
864.195052098 728.482 -1494.69076505 -18.1278708766 63.3893289293 11.1368915483 6.29549 0.686515 2.6596 6.29928 0.51595 2.69785 6.31878 0.24039 2.73618 6.30896 0.669348 2.66397 -16.8827 17.0008 -0.271762 -18.2234 32.78 6.47916 -0.0 0.0 -0.0 -10.0741 24.8328 -10.8423 -32.3438 -5.43556 71.0785 1.06494 -27.8127 0.263678 -7.11894 -0.304545 0.857018 1.44039 21.3841 17.307 -0.0 0.0 -0.0 13.0369 10.8347 -26.6461 -14.6796 63.1177 -59.6556 0.893941 23.885 -0.189079 82.2496 4.10034 8.73146 4.48651 16.5142 -23.5676 0.0 0.0 0.0 32.923 33.7673 -14.3363 -9.04489 0.265411 1.3613 15.5171 -4.64591 -2.20953 -19.0742 0.0 0.0 -0.0 0.0 -0.0 1.36993 28.4887 -1.48122 2.17342 0.0955832 0.319787 41.5164 -2.88559 4.98917 -39.33 0.0 0.0 0.0 0.0 0.0 
856.347666728 731.183 -1482.27407381 -17.5750794745 65.7149178971 11.4718842386 6.06482 0.618636 2.4698 6.0681 0.460274 2.50413 6.0843 0.194134 2.53864 6.0758 0.592506 2.47619 -16.926 16.2444 -0.729359 -18.1611 31.5836 5.72415 -0.0 0.0 -0.0 -9.99676 24.5374 -10.8577 -32.9049 -5.76874 71.4812 1.11417 -28.8946 0.287059 -4.86181 -0.196464 0.589417 1.5464 21.2205 17.9165 -0.0 0.0 -0.0 12.8983 8.81242 -26.3041 -14.394 62.6115 -59.9658 0.976213 25.8073 -0.223653 83.2734 4.221 8.78342 5.01805 21.1151 -24.7596 0.0 0.0 0.0 33.7733 33.2446 -14.9021 -6.44309 0.211155 0.96576 10.502 -5.40972 -1.53092 -20.8858 0.0 0.0 -0.0 0.0 -0.0 1.60139 26.9812 -2.14335 -0.17635 -0.00722153 -0.0260991 41.0988 1.44291 4.98108 -39.657 0.0 0.0 0.0 0.0 0.0 
844.002266771 727.074 -1473.18264104 -18.8939191187 67.7284170307 14.3269423764 5.98048 0.563901 2.17328 5.98301 0.424501 2.20474 5.99638 0.186599 2.23745 5.9898 0.537537 2.17995 -16.26 16.5401 0.454807 -17.3966 31.4601 6.71815 -0.0 0.0 -0.0 -10.3125 24.6389 -11.2707 -33.1494 -5.56212 71.7612 1.12543 -29.1389 0.29252 -3.16954 -0.122403 0.386145 1.81557 20.258 19.3253 -0.0 0.0 -0.0 12.7436 6.75048 -25.8953 -12.8338 62.178 -60.5656 1.02388 26.8935 -0.244812 85.1881 4.44906 8.87477 4.85006 22.5958 -22.6824 0.0 0.0 0.0 33.6044 32.9284 -15.1678 -1.23266 0.0487889 0.182874 10.1087 -5.50341 -1.47636 -23.2312 0.0 0.0 -0.0 0.0 -0.0 2.24221 23.5129 -3.16012 -1.40642 -0.0553489 -0.208732 40.6267 7.20483 5.02205 -37.6025 0.0 0.0 0.0 0.0 0.0 
819.603165945 725.013 -1454.05554059 -19.4739061118 70.3430716328 16.6288177678 5.80134 0.5108 1.68403 5.80283 0.402621 1.71311 5.81318 0.211737 1.74699 5.80925 0.484945 1.69166 -16.1569 14.7979 0.0157759 -17.0456 28.3618 5.52964 -0.0 0.0 -0.0 -10.4058 24.3345 -11.5408 -33.1149 -5.93264 73.7474 1.06922 -27.9076 0.265677 0.14044 0.00492724 -0.0172592 2.04369 22.6975 21.4525 -0.0 0.0 -0.0 12.263 4.94297 -24.7446 -12.5449 61.3022 -58.8361 1.185 30.4124 -0.322104 85.1954 4.44994 8.8751 4.66176 21.3971 -22.0696 0.0 0.0 0.0 34.3606 31.2722 -15.6879 5.01425 -0.238719 -0.732017 8.474 -11.6614 -1.28545 -24.8804 0.0 0.0 -0.0 0.0 -0.0 0.75233 20.368 -2.93249 -2.97616 -0.111047 -0.443194 38.2348 19.2491 5.15998 -35.9852 0.0 0.0 0.0 0.0 0.0 
